# xmcd
#
# Track frame offsets:
# 150
# 14292
# 26073
# 42140
# 51769
# 67220
# 79407
# 104022
# 119152
# 148976
# 162382
#
# Disc length: 2399 seconds
#
#
# Revision: 0
# Processed by: cddbd v1.4PL0 Copyright (c) Steve Scherf et al.
# Submitted via: FreeRIP 2.00 
#
DISCID=a8095d0b
DTITLE=Lars Lind - Strings Attached
DYEAR=2000
DGENRE=Country
TTITLE0=Strings Attached
TTITLE1=Goose Chase
TTITLE2=Song for Alisa
TTITLE3=Downhill Demon
TTITLE4=The Golden Eagle
TTITLE5=Moments
TTITLE6=Desert Ride
TTITLE7=Tour de Morse
TTITLE8=Neptune
TTITLE9=Wired
TTITLE10=Fly Away
EXTD=Country/Rock
EXTT0=
EXTT1=
EXTT2=
EXTT3=
EXTT4=
EXTT5=
EXTT6=
EXTT7=
EXTT8=
EXTT9=
EXTT10=
PLAYORDER=
